<?xml version="1.0" encoding="UTF-8"?>
<svg width="30px" height="30px" viewBox="0 0 30 30" version="1.1" xmlns="http://www.w3.org/2000/svg" xmlns:xlink="http://www.w3.org/1999/xlink">
    <!-- Generator: Sketch 45 (43475) - http://www.bohemiancoding.com/sketch -->
    <title>warn-solid</title>
    <desc>Created with Sketch.</desc>
    <defs></defs>
    <g id="Icons" stroke="none" stroke-width="1" fill="none" fill-rule="evenodd">
        <g id="warn-solid" fill="#050505">
            <path d="M12.7739985,3.55853011 C14.0034306,1.48224897 15.9946511,1.4787317 17.2261658,3.55853011 L29.4726531,24.2405604 C30.7020851,26.3168416 29.7095989,28 27.2465695,28 L2.75359484,28 C0.294730774,28 -0.704003496,26.3203589 0.527511223,24.2405604 L12.7739985,3.55853011 Z M13.5,11.497101 L13.5,18.502899 C13.5,19.328344 14.1715729,20 15,20 C15.8342028,20 16.5,19.329725 16.5,18.502899 L16.5,11.497101 C16.5,10.671656 15.8284271,10 15,10 C14.1657972,10 13.5,10.670275 13.5,11.497101 Z M15,24 C15.8284271,24 16.5,23.3284271 16.5,22.5 C16.5,21.6715729 15.8284271,21 15,21 C14.1715729,21 13.5,21.6715729 13.5,22.5 C13.5,23.3284271 14.1715729,24 15,24 Z" id="Triangle-1"></path>
        </g>
    </g>
</svg>